<svg id="Layer_1" enable-background="new 0 0 512 512" height="512" viewBox="0 0 512 512" width="512" xmlns="http://www.w3.org/2000/svg"><g><g><g><g><g><g><path d="m137.421 53.017h293.336v405.966h-293.336z" fill="#fff5b5"/></g></g><path d="m390.757 53.017h40v405.966h-40z" fill="#ffef8f"/><path d="m174.422 319.161h216.765v98.897h-216.765z" fill="#d9ddff"/><g><g><path d="m137.421 53.017h293.336v75.65h-293.336z" fill="#ffd54d"/></g></g><path d="m390.757 53.017h40v75.65h-40z" fill="#ffc919"/><path d="m310.665 88.152h80.523v89.795h-80.523z" fill="#7776d0"/></g><g><path d="m235.632 480.69c12.359-17.767 19.604-39.357 19.604-62.639 0-16.937-3.838-32.976-10.686-47.3-2.629-5.5-3.005-11.167-3.005-17.107 0-53.092-43.04-96.132-96.132-96.132s-96.132 43.04-96.132 96.132c0 5.965-.399 11.646-3.035 17.169-7.288 15.27-11.156 32.484-10.604 50.656.666 21.912 7.835 42.24 19.618 59.133z" fill="#b36212"/><path d="m42.574 504.5c0-56.734 45.992-102.725 102.725-102.725s102.725 45.991 102.725 102.725z" fill="#ff8ccc"/><path d="m145.299 401.775c-6.844 0-13.531.669-20 1.946 47.16 9.306 82.725 50.889 82.725 100.779h40c0-56.733-45.991-102.725-102.725-102.725z" fill="#ff78c2"/><g><path d="m193.81 313.439c-30.56 65.233-99.495 53.456-114.645 50.52 2.684 34.188 31.256 61.1 66.134 61.1 36.65 0 66.36-29.711 66.36-66.36 0-17.499-6.783-33.404-17.849-45.26z" fill="#ffdbd3"/></g><g><path d="m193.81 313.438c-6.43 13.726-14.56 24.042-23.529 31.749.904 4.362 1.379 8.88 1.379 13.51 0 29.679-19.484 54.808-46.358 63.292 6.31 1.993 13.028 3.068 19.998 3.068 36.65 0 66.36-29.711 66.36-66.36-.001-17.497-6.784-33.403-17.85-45.259z" fill="#ffd1c7"/></g></g></g></g><g><path d="m91.766 107.188c4.143 0 7.5-3.358 7.5-7.5v-84.688h84.678c4.143 0 7.5-3.358 7.5-7.5s-3.357-7.5-7.5-7.5h-92.178c-4.143 0-7.5 3.358-7.5 7.5v92.188c0 4.143 3.357 7.5 7.5 7.5z"/><path d="m476.412 404.812c-4.143 0-7.5 3.358-7.5 7.5v84.688h-84.678c-4.143 0-7.5 3.358-7.5 7.5s3.357 7.5 7.5 7.5h92.178c4.143 0 7.5-3.358 7.5-7.5v-92.188c0-4.143-3.357-7.5-7.5-7.5z"/><path d="m174.422 98.342h85.667c4.143 0 7.5-3.358 7.5-7.5s-3.357-7.5-7.5-7.5h-85.667c-4.143 0-7.5 3.358-7.5 7.5s3.357 7.5 7.5 7.5z"/><path d="m174.422 185.446h85.667c4.143 0 7.5-3.358 7.5-7.5s-3.357-7.5-7.5-7.5h-85.667c-4.143 0-7.5 3.358-7.5 7.5s3.357 7.5 7.5 7.5z"/><path d="m174.422 231.858h216.62c4.143 0 7.5-3.358 7.5-7.5s-3.357-7.5-7.5-7.5h-216.62c-4.143 0-7.5 3.358-7.5 7.5s3.357 7.5 7.5 7.5z"/><path d="m252.298 466.483h178.459c4.143 0 7.5-3.358 7.5-7.5v-214.65c0-9.697-15-9.697-15 0v207.149h-165.378c2.493-8.42 4.047-17.133 4.613-25.925h128.695c4.143 0 7.5-3.358 7.5-7.5v-98.897c0-4.142-3.357-7.5-7.5-7.5h-151.031c-5.634-12.666-13.736-24-23.692-33.391h125.836c4.143 0 7.5-3.358 7.5-7.5s-3.357-7.5-7.5-7.5h-146.209c-14.992-8.44-32.283-13.259-50.679-13.259-.164 0-.328 0-.491.001v-113.844h158.244v41.78c0 4.142 3.357 7.5 7.5 7.5h80.522c4.143 0 7.5-3.358 7.5-7.5v-41.78h24.569v66.833c0 9.697 15 9.697 15 0v-149.983c0-4.142-3.357-7.5-7.5-7.5h-293.335c-4.143 0-7.5 3.358-7.5 7.5v198.131c-17.456 2.592-33.826 9.581-48.008 20.59-7.66 5.947 1.54 17.796 9.198 11.849 15.654-12.152 34.431-18.575 54.301-18.575 48.872 0 88.632 39.76 88.632 88.632 0 6.502.453 13.466 3.739 20.341 6.604 13.812 9.952 28.638 9.952 44.065 0 11.69-1.91 23.003-5.692 33.783-9.719-17.826-24.285-32.94-42.35-43.22 12.082-13.155 19.466-30.689 19.466-49.916 0-18.761-7.056-36.651-19.867-50.377-4.777-3.699-8.868-3.054-12.274 1.936-11.886 25.372-31.352 41.073-57.857 46.667-10.237 2.161-26.974 3.858-48.567-.329-5.595-.293-8.564 2.357-8.904 7.95 1.296 16.508 8.058 31.952 19.194 44.081-17.953 10.222-32.449 25.219-42.164 42.908-3.393-9.699-5.264-19.836-5.582-30.292-.502-16.536 2.821-32.416 9.877-47.198 3.311-6.937 3.767-13.903 3.767-20.399 0-15.108 3.865-30.02 11.178-43.124 4.726-8.468-8.374-15.779-13.098-7.31-8.558 15.333-13.08 32.772-13.08 50.433 0 5.625-.386 9.919-2.304 13.938-8.095 16.96-11.908 35.167-11.332 54.115.52 17.136 4.677 33.528 12.361 48.774-3.543 10.84-5.433 22.306-5.433 34.028 0 4.142 3.357 7.5 7.5 7.5s7.5-3.358 7.5-7.5c0-36.042 20.673-69.281 52.854-85.303 12.348 8.672 27.071 13.361 42.371 13.361 15.741 0 30.347-4.95 42.345-13.374 32.196 16.017 52.88 49.265 52.88 85.316 0 4.142 3.357 7.5 7.5 7.5s7.5-3.358 7.5-7.5c0-11.588-1.846-22.926-5.312-33.656.727-1.436 1.421-2.891 2.086-4.359zm131.39-296.037h-65.522v-74.795h65.522zm39.569-109.929v60.649h-24.569v-33.015c0-4.142-3.357-7.5-7.5-7.5h-80.522c-4.143 0-7.5 3.358-7.5 7.5v33.015h-158.245v-60.649zm-335.039 312.479c19.08 2.395 34.188.684 44.04-1.396 27.061-5.711 48.541-20.989 62.728-44.453 5.967 9.368 9.174 20.262 9.174 31.55 0 32.456-26.404 58.86-58.86 58.86-27.2.001-50.631-18.922-57.082-44.561zm157.263-46.335h138.206v83.897h-121.184c-.934-14.998-4.686-29.445-11.187-43.042-1.893-3.959-2.272-8.243-2.272-13.872 0-9.33-1.24-18.376-3.563-26.983z"/></g></g></svg>